<svg xmlns="http://www.w3.org/2000/svg" width="1080" height="460" viewBox="0 0 1080 460" role="img" aria-label="阿梨资料库默认封面">
  <defs>
    <linearGradient id="bg" x1="0" x2="1" y1="0" y2="1">
      <stop offset="0" stop-color="#f4fff9"/>
      <stop offset="1" stop-color="#eef5ff"/>
    </linearGradient>
    <linearGradient id="accent" x1="0" x2="1" y1="0" y2="1">
      <stop offset="0" stop-color="#28c978"/>
      <stop offset="1" stop-color="#3f7ef7"/>
    </linearGradient>
  </defs>
  <rect width="1080" height="460" fill="url(#bg)"/>
  <circle cx="924" cy="84" r="136" fill="#dcf7e8"/>
  <circle cx="132" cy="384" r="162" fill="#eaf1ff"/>
  <rect x="128" y="92" width="824" height="276" rx="36" fill="#fff" stroke="#dcebe4" stroke-width="3"/>
  <rect x="186" y="154" width="270" height="28" rx="14" fill="#dff8ec"/>
  <rect x="186" y="218" width="536" height="24" rx="12" fill="#edf3f0"/>
  <rect x="186" y="268" width="440" height="24" rx="12" fill="#edf3f0"/>
  <rect x="758" y="154" width="116" height="116" rx="28" fill="url(#accent)"/>
  <path d="M816 184l15 43 44 16-44 16-15 43-16-43-43-16 43-16 16-43Z" fill="#fff"/>
  <text x="186" y="326" fill="#17221d" font-family="Arial, sans-serif" font-size="38" font-weight="800">阿梨资料库</text>
</svg>
