<svg xmlns="http://www.w3.org/2000/svg" width="960" height="540" viewBox="0 0 960 540" role="img" aria-label="高清放大软件 Upscayl 封面">
  <defs>
    <linearGradient id="bg" x1="0" x2="1" y1="0" y2="1">
      <stop offset="0" stop-color="#f4fff9"/>
      <stop offset="1" stop-color="#eef5ff"/>
    </linearGradient>
    <linearGradient id="accent" x1="0" x2="1" y1="0" y2="1">
      <stop offset="0" stop-color="#28c978"/>
      <stop offset="1" stop-color="#3f7ef7"/>
    </linearGradient>
  </defs>
  <rect width="960" height="540" fill="url(#bg)"/>
  <circle cx="784" cy="96" r="134" fill="#dcf7e8"/>
  <circle cx="170" cy="424" r="164" fill="#eaf1ff"/>
  <rect x="138" y="118" width="684" height="304" rx="38" fill="#fff" stroke="#dcebe4" stroke-width="3"/>
  <rect x="196" y="176" width="220" height="164" rx="28" fill="#f6fbf8" stroke="#dcebe4" stroke-width="3"/>
  <rect x="534" y="150" width="170" height="170" rx="34" fill="url(#accent)"/>
  <path d="M619 188l19 56 56 20-56 20-19 56-20-56-56-20 56-20 20-56Z" fill="#fff"/>
  <path d="M416 258h92" stroke="#28c978" stroke-width="14" stroke-linecap="round"/>
  <path d="M462 212l46 46-46 46" fill="none" stroke="#28c978" stroke-width="14" stroke-linecap="round" stroke-linejoin="round"/>
  <text x="196" y="386" fill="#17221d" font-family="Arial, sans-serif" font-size="42" font-weight="800">Upscayl</text>
  <text x="196" y="80" fill="#17221d" font-family="Arial, sans-serif" font-size="36" font-weight="800">Image Upscale Tool</text>
</svg>
